<svg xmlns="http://www.w3.org/2000/svg" viewBox="0 0 581.92 88.17"><defs><style>.cls-1{fill:#373737;}.cls-2{fill:#00c4a6;}</style></defs><g id="Layer_2" data-name="Layer 2"><g id="Layer_1-2" data-name="Layer 1"><path class="cls-1" d="M141.29,62.13q-.71-1.7-1.86-4.3t-2.5-5.63c-.9-2-1.85-4.09-2.85-6.23s-2-4.15-2.86-6-1.72-3.61-2.49-5.11-1.4-2.65-1.87-3.45q-.78,8.31-1.27,18t-.84,19.54h-6.69q.28-6.35.63-12.78t.81-12.67q.47-6.24,1-12.15t1.16-11.19h6q1.91,3.09,4.09,7.32t4.36,8.83c1.46,3.08,2.86,6.15,4.23,9.23s2.6,5.88,3.73,8.41l3.73-8.41q2-4.62,4.22-9.23t4.37-8.83q2.17-4.23,4.08-7.32h6q2.4,23.58,3.6,48.79h-6.69Q163,59,162.48,49.35t-1.27-18q-.71,1.2-1.86,3.45t-2.5,5.11c-.89,1.9-1.84,3.91-2.85,6s-2,4.21-2.85,6.23-1.73,3.9-2.5,5.63-1.4,3.17-1.87,4.3Z"/><path class="cls-1" d="M176,75.71a11.59,11.59,0,0,0,2,.67,9.9,9.9,0,0,0,2.43.32A9.62,9.62,0,0,0,186.49,75a15,15,0,0,0,3.94-5.6q-4.44-8.44-8.27-17.92a155.57,155.57,0,0,1-6.37-19.18h7q.76,3.16,1.86,6.83t2.43,7.53C188,49.22,189,51.8,190,54.38s2.11,5.07,3.24,7.47q2.67-7.4,4.64-14.65t3.73-14.92h6.76q-2.53,10.35-5.63,19.89T196.06,70a38.05,38.05,0,0,1-2.92,5.46,16.42,16.42,0,0,1-3.34,3.76,12.21,12.21,0,0,1-4.12,2.19,17.59,17.59,0,0,1-5.18.7,13.27,13.27,0,0,1-1.62-.1c-.56-.07-1.11-.17-1.65-.29a15.12,15.12,0,0,1-1.48-.38,6.51,6.51,0,0,1-.95-.36Z"/><path class="cls-1" d="M237.6,62.13q-.71-1.7-1.87-4.3c-.77-1.73-1.61-3.61-2.5-5.63s-1.84-4.09-2.85-6.23-2-4.15-2.85-6-1.72-3.61-2.5-5.11-1.4-2.65-1.86-3.45q-.78,8.31-1.27,18t-.85,19.54h-6.68q.27-6.35.63-12.78t.81-12.67q.45-6.24,1-12.15c.36-3.94.74-7.67,1.17-11.19h6q1.91,3.09,4.08,7.32t4.37,8.83q2.18,4.62,4.22,9.23l3.73,8.41q1.69-3.8,3.73-8.41t4.23-9.23q2.17-4.61,4.36-8.83t4.09-7.32h6q2.4,23.58,3.59,48.79h-6.69q-.35-9.86-.84-19.54t-1.27-18q-.7,1.2-1.86,3.45t-2.5,5.11c-.9,1.9-1.85,3.91-2.85,6s-2,4.21-2.86,6.23-1.72,3.9-2.5,5.63-1.39,3.17-1.86,4.3Z"/><path class="cls-1" d="M279.84,25.66a4.2,4.2,0,0,1-3-1.16,4.09,4.09,0,0,1-1.24-3.14,4.08,4.08,0,0,1,1.24-3.13,4.43,4.43,0,0,1,6,0,4.11,4.11,0,0,1,1.23,3.13,4.12,4.12,0,0,1-1.23,3.14A4.22,4.22,0,0,1,279.84,25.66Zm3.31,43.23H276.6V32.28h6.55Z"/><path class="cls-1" d="M294.41,33.33c1.5-.37,3.5-.77,6-1.19A50.94,50.94,0,0,1,309,31.5a18.36,18.36,0,0,1,7.25,1.24,11.45,11.45,0,0,1,4.62,3.44,13.54,13.54,0,0,1,2.42,5.32,30.81,30.81,0,0,1,.71,6.83V68.89h-6.55V49.74A30.87,30.87,0,0,0,317,44a9.8,9.8,0,0,0-1.51-3.87,6,6,0,0,0-2.82-2.15,12.5,12.5,0,0,0-4.36-.66c-.71,0-1.43,0-2.18.07s-1.47.1-2.15.17-1.29.15-1.83.25L301,38V68.89h-6.55Z"/><path class="cls-1" d="M338.06,25.66a4.2,4.2,0,0,1-3-1.16,4.09,4.09,0,0,1-1.24-3.14,4.08,4.08,0,0,1,1.24-3.13,4.43,4.43,0,0,1,6,0,4.11,4.11,0,0,1,1.23,3.13,4.12,4.12,0,0,1-1.23,3.14A4.22,4.22,0,0,1,338.06,25.66Zm3.31,43.23h-6.55V32.28h6.55Z"/><path class="cls-1" d="M353.05,68.89V20.1h29.43v5.84h-22.6V40.66h20.06v5.77H359.88V68.89Z"/><path class="cls-1" d="M398.67,31.36a18.94,18.94,0,0,1,6.65,1,10.8,10.8,0,0,1,4.37,2.89,11,11,0,0,1,2.36,4.43,21.48,21.48,0,0,1,.7,5.67V68.25l-2.36.39c-1,.16-2.14.32-3.41.46s-2.64.27-4.12.38-2.95.18-4.4.18a24.15,24.15,0,0,1-5.7-.63,12.82,12.82,0,0,1-4.51-2,9.21,9.21,0,0,1-3-3.63A12.72,12.72,0,0,1,384.24,58a10.48,10.48,0,0,1,1.23-5.21,10,10,0,0,1,3.34-3.52,15.71,15.71,0,0,1,4.93-2,27.06,27.06,0,0,1,5.92-.63c.65,0,1.33,0,2,.1s1.37.17,2,.29l1.66.31,1,.21V45.72a14.39,14.39,0,0,0-.35-3.2,7.45,7.45,0,0,0-1.26-2.82,6.62,6.62,0,0,0-2.5-2,9.86,9.86,0,0,0-4.12-.74,31.4,31.4,0,0,0-5.67.46,20.21,20.21,0,0,0-3.63.95L388,33a20.48,20.48,0,0,1,4.22-1.09A36.78,36.78,0,0,1,398.67,31.36Zm.56,32.81c1.55,0,2.93,0,4.12-.11a18.68,18.68,0,0,0,3-.38V52.76a8.46,8.46,0,0,0-2.28-.59,26.48,26.48,0,0,0-7,0,9.52,9.52,0,0,0-3,.88,6.54,6.54,0,0,0-2.29,1.83,4.8,4.8,0,0,0-.91,3.06q0,3.52,2.25,4.9A11.76,11.76,0,0,0,399.23,64.17Z"/><path class="cls-1" d="M439.5,69.73a19.93,19.93,0,0,1-7.78-1.41,15.68,15.68,0,0,1-5.63-3.94,16.31,16.31,0,0,1-3.41-6,25,25,0,0,1-1.13-7.71,23.31,23.31,0,0,1,1.23-7.74,18.07,18.07,0,0,1,3.49-6.09,15.6,15.6,0,0,1,5.52-4,17.77,17.77,0,0,1,7.29-1.45,29.39,29.39,0,0,1,4.93.42,23.16,23.16,0,0,1,4.71,1.34l-1.47,5.56a15.78,15.78,0,0,0-3.42-1.12,19.36,19.36,0,0,0-4.12-.43c-3.66,0-6.46,1.16-8.41,3.45s-2.92,5.66-2.92,10.07a20.47,20.47,0,0,0,.67,5.42,11.15,11.15,0,0,0,2.11,4.23,9.45,9.45,0,0,0,3.7,2.71,14.17,14.17,0,0,0,5.49,1,20.62,20.62,0,0,0,4.71-.5,17.1,17.1,0,0,0,3.31-1.05l.92,5.49a6.76,6.76,0,0,1-1.62.67,22,22,0,0,1-2.4.56q-1.33.25-2.85.42A24.72,24.72,0,0,1,439.5,69.73Z"/><path class="cls-1" d="M462.45,32.28h13.87v5.49H462.45V54.66a19.88,19.88,0,0,0,.43,4.55A6.85,6.85,0,0,0,464.14,62a4.6,4.6,0,0,0,2.11,1.44,9.14,9.14,0,0,0,3,.43,14,14,0,0,0,4.75-.67c1.2-.45,2-.76,2.5-.95l1.27,5.42a24.1,24.1,0,0,1-3.45,1.23,19.69,19.69,0,0,1-5.63.74,17.15,17.15,0,0,1-6.16-1,9,9,0,0,1-3.91-2.85,11.54,11.54,0,0,1-2.08-4.68,30.86,30.86,0,0,1-.59-6.44V22.07l6.54-1.13Z"/><path class="cls-1" d="M516,50.58a23.32,23.32,0,0,1-1.27,7.89,17.93,17.93,0,0,1-3.56,6,15.65,15.65,0,0,1-5.45,3.91,18.06,18.06,0,0,1-13.8,0,15.78,15.78,0,0,1-5.46-3.91,18.08,18.08,0,0,1-3.55-6,23.07,23.07,0,0,1-1.27-7.89,23.13,23.13,0,0,1,1.27-7.85,18,18,0,0,1,3.55-6.09,15.62,15.62,0,0,1,5.46-3.9,17.94,17.94,0,0,1,13.8,0,15.5,15.5,0,0,1,5.45,3.9,17.83,17.83,0,0,1,3.56,6.09A23.37,23.37,0,0,1,516,50.58Zm-6.83,0q0-6.19-2.78-9.82a9.71,9.71,0,0,0-15.14,0q-2.77,3.63-2.78,9.82t2.78,9.82a9.71,9.71,0,0,0,15.14,0Q509.13,56.79,509.13,50.58Z"/><path class="cls-1" d="M538.7,31.5c.56,0,1.2,0,1.93.11s1.45.16,2.15.28l1.94.35c.58.12,1,.23,1.3.32l-1.13,5.7a21.85,21.85,0,0,0-2.57-.67,22.29,22.29,0,0,0-4.61-.39,16.93,16.93,0,0,0-3.62.39l-2.36.53V68.89h-6.55V33.83A44.47,44.47,0,0,1,531,32.24,37.29,37.29,0,0,1,538.7,31.5Z"/><path class="cls-1" d="M549.54,75.71a11.59,11.59,0,0,0,2,.67,9.78,9.78,0,0,0,2.43.32A9.62,9.62,0,0,0,560,75a15,15,0,0,0,3.94-5.6q-4.44-8.44-8.27-17.92a155.57,155.57,0,0,1-6.37-19.18h7q.76,3.16,1.86,6.83t2.43,7.53q1.33,3.87,2.89,7.74t3.24,7.47q2.67-7.4,4.64-14.65t3.73-14.92h6.76q-2.53,10.35-5.63,19.89T569.6,70a38.05,38.05,0,0,1-2.92,5.46,16.42,16.42,0,0,1-3.34,3.76,12.3,12.3,0,0,1-4.12,2.19,17.59,17.59,0,0,1-5.18.7,13.27,13.27,0,0,1-1.62-.1c-.56-.07-1.11-.17-1.65-.29a15.12,15.12,0,0,1-1.48-.38,6.07,6.07,0,0,1-.95-.36Z"/><path class="cls-2" d="M88.17.88V87.29a.87.87,0,0,1-.88.88H52.9V70.54H70.54V26.45H52.9V52.9H35.27V26.45H17.63V70.54H35.27V88.17H1.77A1.76,1.76,0,0,1,0,86.41V.88A.89.89,0,0,1,.88,0H87.29A.88.88,0,0,1,88.17.88Z"/></g></g></svg>